# xmcd
#
# Track frame offsets:
#	150
#	13014
#	40383
#	55251
#	66860
#	84642
#	99360
#	118227
#	131570
#	144650
#	159090
#	183251
#	204089
#	219978
#	231420
#	249373
#	263744
#	289116
#
# Disc length: 4299 seconds
# Revision: 0
# Processed by: cddbd v1.5.2PL0 Copyright (c) Steve Scherf et al.
# Submitted via: dBpowerAMP V12.0
#
DISCID=fc10c912
DTITLE=Jimi Hendrix - West Coast Seattle Boy: The Jimi Hendrix Anthology
DYEAR=2010
DGENRE=R&B
TTITLE0=Fire [Alternate Recording]
TTITLE1=Are You Experienced? [Early Take]
TTITLE2=May This Be Love [Alternate Recording]
TTITLE3=Can You See Me [Alt. Mono Mix]
TTITLE4=The Wind Cries Mary [Stockholm 5-9-67]
TTITLE5=Love or Confusion [Alternate Recording]
TTITLE6=Little One [Alternate Recording]
TTITLE7=Mr. Bad Luck [Alternate Recording]
TTITLE8=Cat Talking to Me [Unreleased Recording]
TTITLE9=Castles Made of Sand [Alternate Recording]
TTITLE10=Tears of Rage [Home Demo]
TTITLE11=Hear My Train a Comin' [Home Demo]
TTITLE12=1983 (A Merman I Shall Turn To Be) [Home Demo]
TTITLE13=Long Hot Summer Night [Home Demo]
TTITLE14=My Friend [Home Demo]
TTITLE15=Angel [Home Demo]
TTITLE16=Calling All the Devil's Children [Unreleased Recording]
TTITLE17=New Rising Sun [Extended Instrumental Version]
EXTD=
EXTT0=
EXTT1=
EXTT2=
EXTT3=
EXTT4=
EXTT5=
EXTT6=
EXTT7=
EXTT8=
EXTT9=
EXTT10=
EXTT11=
EXTT12=
EXTT13=
EXTT14=
EXTT15=
EXTT16=
EXTT17=
PLAYORDER=
